<?xml version="1.0" standalone="no"?>
<!DOCTYPE svg PUBLIC "-//W3C//DTD SVG 20010904//EN"
 "http://www.w3.org/TR/2001/REC-SVG-20010904/DTD/svg10.dtd">
<svg version="1.0" xmlns="http://www.w3.org/2000/svg"
 width="100.000000pt" height="100.000000pt" viewBox="0 0 100.000000 100.000000"
 preserveAspectRatio="xMidYMid meet">
<metadata>
Created by potrace 1.16, written by Peter Selinger 2001-2019
</metadata>
<g transform="translate(0.000000,100.000000) scale(0.100000,-0.100000)"
fill="#d4d4d8" stroke="none">
<path d="M460 740 l0 -170 -60 0 -60 0 0 -35 c0 -32 2 -35 30 -35 28 0 30 -3
30 -35 0 -32 2 -35 30 -35 27 0 30 -3 30 -30 0 -28 2 -30 40 -30 38 0 40 2 40
30 0 27 3 30 30 30 28 0 30 3 30 35 0 32 2 35 30 35 28 0 30 3 30 35 l0 35
-60 0 -60 0 0 170 0 170 -40 0 -40 0 0 -170z"/>
<path d="M150 500 l0 -350 350 0 350 0 0 350 0 350 -100 0 -100 0 0 -35 0 -35
65 0 65 0 0 -280 0 -280 -280 0 -280 0 0 280 0 280 65 0 65 0 0 35 0 35 -100
0 -100 0 0 -350z"/>
</g>
</svg>
